<?xml version="1.0" encoding="UTF-8"?>
<svg version="1.1" xmlns="http://www.w3.org/2000/svg" width="429" height="393">
<path d="M0 0 C141.57 0 283.14 0 429 0 C429 129.69 429 259.38 429 393 C287.43 393 145.86 393 0 393 C0 263.31 0 133.62 0 0 Z " fill="#FDFDFD" transform="translate(0,0)"/>
<path d="M0 0 C20.15369008 16.74620202 34.32751032 35.95216825 41.703125 61.24609375 C41.95489502 62.0448291 42.20666504 62.84356445 42.46606445 63.66650391 C45.07825756 72.76344414 45.21709267 81.48956519 45.140625 90.87109375 C45.13725128 91.67078583 45.13387756 92.47047791 45.13040161 93.29440308 C45.05842483 105.05222944 44.50296527 116.03087331 40.703125 127.24609375 C40.46174805 128.01083008 40.22037109 128.77556641 39.97167969 129.56347656 C31.41544282 156.45911924 15.23787263 175.92443494 -8.296875 191.24609375 C-9.10415039 191.81203247 -9.10415039 191.81203247 -9.92773438 192.3894043 C-14.79227586 195.56079787 -18.95199015 195.83699849 -24.671875 195.68359375 C-25.54674561 195.67038086 -26.42161621 195.65716797 -27.32299805 195.64355469 C-41.06921401 195.27018531 -54.13669465 192.01982814 -67.296875 188.24609375 C-67.296875 187.91609375 -67.296875 187.58609375 -67.296875 187.24609375 C-65.50056641 186.91738281 -65.50056641 186.91738281 -63.66796875 186.58203125 C-44.0525957 182.8314974 -26.93181798 176.18159501 -12.3203125 162.03125 C-10.296875 160.24609375 -10.296875 160.24609375 -7.296875 159.24609375 C-6.58346802 157.93717332 -5.92765075 156.59677661 -5.296875 155.24609375 C-3.89678513 153.25516595 -2.47786847 151.27742661 -1.046875 149.30859375 C6.18105582 139.04696802 10.39771733 128.60226995 12.703125 116.24609375 C12.26613281 117.24576172 12.26613281 117.24576172 11.8203125 118.265625 C10.48156829 121.27569453 9.10135725 124.26319828 7.703125 127.24609375 C7.29191406 128.13296875 6.88070312 129.01984375 6.45703125 129.93359375 C-3.23576002 149.26165231 -20.25356654 162.82778637 -40.296875 170.24609375 C-64.83434533 178.16088106 -88.2719997 176.55479757 -111.296875 165.24609375 C-115.15464688 163.13882748 -118.74310947 160.83014093 -122.296875 158.24609375 C-123.13476562 157.64152344 -123.97265625 157.03695312 -124.8359375 156.4140625 C-145.22668398 140.91583259 -156.55351145 119.14095729 -161.88671875 94.5234375 C-164.76062105 71.55958964 -161.18205026 47.29491696 -147.296875 28.24609375 C-144.40570444 24.80422404 -141.40518442 21.49255025 -138.296875 18.24609375 C-154.34674992 30.37266591 -163.85281956 48.99631678 -168.296875 68.24609375 C-168.63332031 69.57447266 -168.63332031 69.57447266 -168.9765625 70.9296875 C-174.46415553 95.62385615 -167.30081539 122.52594216 -154.56640625 143.85546875 C-148.8159205 152.72603527 -141.59691869 160.70594471 -133.296875 167.24609375 C-136.64811215 168.35428143 -138.889685 168.11318259 -142.3046875 167.3203125 C-143.77228516 166.99329346 -143.77228516 166.99329346 -145.26953125 166.65966797 C-146.30980469 166.42006348 -147.35007813 166.18045898 -148.421875 165.93359375 C-155.31606226 164.37117465 -161.94266177 163.06882673 -169.00976562 162.73925781 C-177.93005905 162.27838868 -177.93005905 162.27838868 -181.8984375 159.28125 C-184.15549444 156.3836769 -185.70721184 153.5594432 -187.296875 150.24609375 C-188.00876703 148.83706393 -188.72102639 147.42821967 -189.43359375 146.01953125 C-204.02184392 116.44516954 -208.06105662 84.89620012 -197.37963867 53.28125 C-186.24349271 22.26651091 -162.95086037 -1.78888078 -133.36376953 -15.82421875 C-122.76703145 -20.59062303 -111.71125778 -22.94906795 -100.296875 -24.75390625 C-99.26175781 -24.93953125 -98.22664063 -25.12515625 -97.16015625 -25.31640625 C-62.69076162 -29.21991707 -27.52180503 -21.69410042 0 0 Z " fill="#141614" transform="translate(304.296875,97.75390625)"/>
<path d="M0 0 C2.68017357 2.20918073 5.23169925 4.49144954 7.74609375 6.88671875 C9.97482588 9.04708174 9.97482588 9.04708174 12.5078125 10.91796875 C26.78683175 22.84699267 36.04472062 43.84323365 38 62 C39.78971485 86.05999262 33.92039009 108.26803741 18.10180664 126.86938477 C6.9866297 139.24924682 -7.05202648 146.6619506 -23 151 C-24.546875 151.52207031 -24.546875 151.52207031 -26.125 152.0546875 C-45.86322918 156.86986034 -66.46233641 151.69281203 -83.80078125 142.0625 C-87.13687977 139.91175517 -90.01189713 137.60385364 -93 135 C-88.3702787 128.27780897 -82.89166211 122.68698743 -77.0625 117 C-71.66362427 111.70934227 -66.37398693 106.42266342 -61.45483398 100.6796875 C-59.72782352 98.68575697 -57.89723813 96.83181613 -56 95 C-52.72797872 91.7784145 -49.70683945 88.41407855 -46.71484375 84.93359375 C-44.50440699 82.44118784 -42.14158441 80.13002433 -39.765625 77.796875 C-37.24751953 75.23420129 -34.91377295 72.52543569 -32.578125 69.796875 C-31.10213522 68.11629258 -29.6713234 66.48766149 -28 65 C-27.34 65 -26.68 65 -26 65 C-24.68 72.59 -23.36 80.18 -22 88 C-19.30929473 85.30929473 -18.31561073 82.15813215 -16.953125 78.67578125 C-16.65944031 77.93732468 -16.36575562 77.1988681 -16.06317139 76.43803406 C-15.12057566 74.06475388 -14.18515876 71.68871914 -13.25 69.3125 C-12.63589632 67.76217971 -12.02131777 66.21204743 -11.40625 64.66210938 C-10.18897089 61.59266246 -8.97345887 58.52252674 -7.75976562 55.45166016 C-7.3190271 54.33673187 -7.3190271 54.33673187 -6.86938477 53.19927979 C-6.30010583 51.75917673 -5.73092875 50.31903341 -5.16186523 48.87884521 C-2.25011063 41.51872251 0.71445793 34.20291916 4 27 C2.75734375 27.32871094 1.5146875 27.65742188 0.234375 27.99609375 C-11.65199712 31.12650847 -23.55590774 34.19050842 -35.47253418 37.2036438 C-37.06364402 37.6068783 -38.65423013 38.0121855 -40.2442627 38.41964722 C-55.95161399 42.44082967 -55.95161399 42.44082967 -64 43 C-64 43.66 -64 44.32 -64 45 C-63.44054687 45.08636719 -62.88109375 45.17273438 -62.3046875 45.26171875 C-54.53332497 46.62358132 -47.35743028 49.22241105 -40 52 C-43.34262379 56.7564751 -47.36245419 59.659863 -52.0625 62.9375 C-53.6893929 64.09291854 -55.31567544 65.2491969 -56.94140625 66.40625 C-58.19655029 67.29570312 -58.19655029 67.29570312 -59.47705078 68.203125 C-70.74692495 76.22966592 -81.79605737 84.54355747 -92.6875 93.07495117 C-98.00511338 97.23974117 -103.38023624 101.31428567 -108.8125 105.328125 C-111.05006753 106.96178315 -111.05006753 106.96178315 -113 109 C-113.99 109 -114.98 109 -116 109 C-124.19171283 91.96572592 -124.19171283 91.96572592 -126 85 C-126.20367187 84.22269531 -126.40734375 83.44539063 -126.6171875 82.64453125 C-131.28138012 61.52787837 -126.98097526 39.44894037 -116 21 C-103.84723513 2.11208246 -85.81252379 -10.16793904 -64 -15 C-41.43135796 -19.58813053 -18.77856463 -12.74712282 0 0 Z " fill="#FCFCFC" transform="translate(276,112)"/>
<path d="M0 0 C0.66 0.33 1.32 0.66 2 1 C-2.78677388 8.23403127 -8.03810658 14.70464475 -14 21 C-15.04800781 22.12728516 -15.04800781 22.12728516 -16.1171875 23.27734375 C-34.13819966 42.0574828 -58.89383717 56.45365089 -83.5 64.5625 C-85.37171875 65.18318359 -85.37171875 65.18318359 -87.28125 65.81640625 C-88.5084375 66.20699219 -89.735625 66.59757812 -91 67 C-92.1034375 67.35964844 -93.206875 67.71929687 -94.34375 68.08984375 C-122.62697988 75.1304341 -153.95252509 69.03925206 -181 60 C-181.81001465 59.73316406 -182.6200293 59.46632813 -183.45458984 59.19140625 C-197.92211423 54.39661918 -211.93686498 48.59495826 -226.00488281 42.75195312 C-267.34893914 25.65587631 -314.37874768 9.93314519 -358.4375 26.3125 C-359.26121094 26.65925781 -360.08492188 27.00601562 -360.93359375 27.36328125 C-363 28 -363 28 -366 27 C-353.74848711 19.15046154 -342.17242495 13.66352076 -328 10 C-326.77925781 9.62488281 -325.55851562 9.24976563 -324.30078125 8.86328125 C-304.15142593 3.08530399 -279.49267779 4.49068309 -259 8 C-258.10466553 8.13422363 -257.20933105 8.26844727 -256.28686523 8.40673828 C-249.27759767 9.48890645 -242.59756443 11.07500264 -235.8125 13.125 C-234.78423096 13.43066895 -233.75596191 13.73633789 -232.6965332 14.05126953 C-217.54029073 18.59044292 -202.49751599 23.47896937 -187.49951172 28.51367188 C-182.00442266 30.35686904 -176.50414069 32.18402342 -171 34 C-170.17000488 34.27505371 -169.34000977 34.55010742 -168.48486328 34.83349609 C-132.08607229 46.7516843 -95.91939939 42.66657888 -60 31 C-59.21689453 30.74992187 -58.43378906 30.49984375 -57.62695312 30.2421875 C-37.46703397 23.74244386 -15.26452596 15.16698905 0 0 Z " fill="#151716" transform="translate(406,261)"/>
<path d="M0 0 C15.21240891 6.77911286 30.50953043 13.02766732 46.67553711 17.1574707 C46.67553711 17.4874707 46.67553711 17.8174707 46.67553711 18.1574707 C40.02884261 18.29270355 33.69293383 17.82959814 27.11303711 16.9074707 C26.147771 16.77324707 25.18250488 16.63902344 24.18798828 16.50073242 C16.5364211 15.38452173 9.16489428 13.78215169 1.70776367 11.71655273 C-0.47824092 11.11516512 -2.66971495 10.53830259 -4.86352539 9.96606445 C-11.2094455 8.31003785 -17.55376826 6.65095318 -23.87524414 4.90356445 C-33.02623655 2.39669842 -42.20752409 0.27243638 -51.51196289 -1.5925293 C-52.56335449 -1.80329102 -53.61474609 -2.01405273 -54.69799805 -2.23120117 C-63.18141401 -3.89114784 -71.40713012 -4.99485331 -80.04711914 -5.08081055 C-80.86197784 -5.09051376 -81.67683655 -5.10021698 -82.51638794 -5.11021423 C-85.13996351 -5.13504199 -87.76328172 -5.14772774 -90.38696289 -5.1550293 C-91.28130035 -5.15764771 -92.17563782 -5.16026611 -93.09707642 -5.16296387 C-111.01152191 -5.16858604 -128.0289746 -3.58114741 -144.99633789 2.52075195 C-147.32446289 3.1574707 -147.32446289 3.1574707 -150.32446289 2.1574707 C-100.01132331 -27.96924205 -51.79703647 -23.08776988 0 0 Z " fill="#181918" transform="translate(173.324462890625,307.842529296875)"/>
<path d="M0 0 C18.48 0 36.96 0 56 0 C48.54739459 4.9684036 36.80800125 3.18318759 28.1875 3.1875 C26.91068359 3.19974609 25.63386719 3.21199219 24.31835938 3.22460938 C16.02782543 3.23726668 8.150125 2.52044928 0 1 C0 0.67 0 0.34 0 0 Z " fill="#464746" transform="translate(255,328)"/>
<path d="M0 0 C0.66 0.33 1.32 0.66 2 1 C1.57589844 1.37769531 1.15179688 1.75539063 0.71484375 2.14453125 C-3.93535276 6.50856182 -7.23211205 11.19057492 -10.51953125 16.64453125 C-12.59365972 19.94452985 -14.52737154 21.37944005 -18 23 C-16.52171919 18.36632448 -13.8359938 15.10425186 -10.6875 11.5 C-10.21376953 10.94441406 -9.74003906 10.38882813 -9.25195312 9.81640625 C-6.3053723 6.39014948 -3.23322493 3.15666405 0 0 Z " fill="#E5E5E5" transform="translate(165,115)"/>
<path d="M0 0 C-0.66 0.66 -1.32 1.32 -2 2 C-1.67 2.66 -1.34 3.32 -1 4 C-2.76774419 4.53122363 -4.53934083 5.04964073 -6.3125 5.5625 C-7.29863281 5.85253906 -8.28476562 6.14257812 -9.30078125 6.44140625 C-12 7 -12 7 -15 6 C-13.07010782 4.80017556 -11.13080772 3.61547182 -9.1875 2.4375 C-8.10855469 1.77621094 -7.02960937 1.11492187 -5.91796875 0.43359375 C-3 -1 -3 -1 0 0 Z " fill="#393A3A" transform="translate(38,304)"/>
<path d="M0 0 C5.445 1.485 5.445 1.485 11 3 C11 3.33 11 3.66 11 4 C5.22240116 4.12036664 -0.27959989 3.8320582 -6 3 C-6 2.67 -6 2.34 -6 2 C-4.02 2 -2.04 2 0 2 C0 1.34 0 0.68 0 0 Z " fill="#4C4C4C" transform="translate(209,322)"/>
<path d="M0 0 C0.57234375 0.37898438 1.1446875 0.75796875 1.734375 1.1484375 C1.734375 1.4784375 1.734375 1.8084375 1.734375 2.1484375 C0.300935 2.68034291 -1.13757867 3.19859008 -2.578125 3.7109375 C-3.77888672 4.14599609 -3.77888672 4.14599609 -5.00390625 4.58984375 C-7.265625 5.1484375 -7.265625 5.1484375 -10.265625 4.1484375 C-9.0293082 3.25420836 -7.77590938 2.38355859 -6.515625 1.5234375 C-5.81953125 1.03617187 -5.1234375 0.54890625 -4.40625 0.046875 C-2.265625 -0.8515625 -2.265625 -0.8515625 0 0 Z " fill="#404040" transform="translate(50.265625,283.8515625)"/>
<path d="M0 0 C0.66 0.33 1.32 0.66 2 1 C-1.33333333 4.33333333 -4.66666667 7.66666667 -8 11 C-8 8 -8 8 -6.25 5.95703125 C-5.5075 5.24933594 -4.765 4.54164062 -4 3.8125 C-2.88625 2.73935547 -2.88625 2.73935547 -1.75 1.64453125 C-1.1725 1.10183594 -0.595 0.55914062 0 0 Z " fill="#949494" transform="translate(165,115)"/>
<path d="M0 0 C1 3 1 3 0.0625 5.1875 C-0.4634375 6.0846875 -0.4634375 6.0846875 -1 7 C-1.99 7 -2.98 7 -4 7 C-3.39816251 4.97954558 -2.72693904 2.97888961 -2 1 C-1.34 0.67 -0.68 0.34 0 0 Z " fill="#DEDEDF" transform="translate(315,220)"/>
</svg>
